<svg xmlns="http://www.w3.org/2000/svg" xmlns:xlink="http://www.w3.org/1999/xlink" width="800" zoomAndPan="magnify" viewBox="0 0 600 599.999999" height="800" preserveAspectRatio="xMidYMid meet" version="1.0"><defs><g/><clipPath id="b3b595b1fa"><path d="M 137.378906 90.59375 L 423.167969 90.59375 L 423.167969 376.382812 L 137.378906 376.382812 Z M 137.378906 90.59375 " clip-rule="nonzero"/></clipPath><clipPath id="55b11b67e8"><path d="M 280.273438 90.59375 C 201.355469 90.59375 137.378906 154.570312 137.378906 233.488281 C 137.378906 312.40625 201.355469 376.382812 280.273438 376.382812 C 359.191406 376.382812 423.167969 312.40625 423.167969 233.488281 C 423.167969 154.570312 359.191406 90.59375 280.273438 90.59375 Z M 280.273438 90.59375 " clip-rule="nonzero"/></clipPath></defs><g clip-path="url(#b3b595b1fa)"><g clip-path="url(#55b11b67e8)"><path fill="#fff1b9" d="M 137.378906 90.59375 L 423.167969 90.59375 L 423.167969 376.382812 L 137.378906 376.382812 Z M 137.378906 90.59375 " fill-opacity="1" fill-rule="nonzero"/></g></g><g fill="#8c52ff" fill-opacity="1"><g transform="translate(68.783933, 513.859646)"><g><path d="M 230.882812 -441.195312 C 106.152344 -441.195312 5.308594 -340.351562 5.308594 -216.285156 C 5.308594 -92.21875 106.152344 9.289062 230.882812 9.289062 C 354.945312 9.289062 455.792969 -92.21875 455.792969 -216.285156 C 455.792969 -340.351562 354.945312 -441.195312 230.882812 -441.195312 Z M 219.601562 -252.773438 C 246.140625 -252.773438 268.035156 -230.882812 268.035156 -204.34375 C 268.035156 -177.140625 246.140625 -155.910156 219.601562 -155.910156 C 68.335938 -155.910156 53.738281 -376.839844 181.121094 -415.984375 L 181.121094 -232.871094 C 189.746094 -245.476562 204.34375 -252.773438 219.601562 -252.773438 Z M 219.601562 -252.773438 "/></g></g></g></svg>